<svg xmlns="http://www.w3.org/2000/svg" viewBox="0 0 512 512" role="img" aria-label="Money Calendar favicon"><defs><linearGradient id="bg" x1="0" y1="0" x2="512" y2="512" gradientUnits="userSpaceOnUse"><stop offset="0" stop-color="#0B1120"/><stop offset=".62" stop-color="#1D4ED8"/><stop offset="1" stop-color="#10B981"/></linearGradient><linearGradient id="head" x1="105" y1="92" x2="407" y2="174" gradientUnits="userSpaceOnUse"><stop offset="0" stop-color="#2563EB"/><stop offset="1" stop-color="#10B981"/></linearGradient></defs><rect x="8" y="8" width="496" height="496" rx="92" fill="url(#bg)"/><circle cx="120" cy="90" r="115" fill="#38BDF8" opacity=".18"/><circle cx="420" cy="420" r="150" fill="#22C55E" opacity=".18"/><rect x="105" y="92" width="302" height="308" rx="48" fill="#F8FAFC"/><path d="M153 92h254v82H105v-26c0-27 21-48 48-48Z" fill="url(#head)"/><rect x="160" y="72" width="36" height="53" rx="17" fill="#fff"/><rect x="168" y="72" width="20" height="42" rx="10" fill="#0F172A"/><rect x="316" y="72" width="36" height="53" rx="17" fill="#fff"/><rect x="324" y="72" width="20" height="42" rx="10" fill="#0F172A"/><rect x="135" y="210" width="70" height="14" rx="7" fill="#CBD5E1"/><rect x="223" y="210" width="55" height="14" rx="7" fill="#CBD5E1"/><rect x="311" y="210" width="75" height="14" rx="7" fill="#CBD5E1"/><g fill="#E2E8F0"><rect x="135" y="250" width="45" height="27" rx="9"/><rect x="223" y="250" width="45" height="27" rx="9"/><rect x="311" y="250" width="45" height="27" rx="9"/><rect x="135" y="300" width="45" height="27" rx="9"/><rect x="223" y="300" width="45" height="27" rx="9"/></g><rect x="311" y="300" width="45" height="27" rx="9" fill="#D1FAE5"/><polyline points="142,360 205,325 258,335 316,285 370,260" fill="none" stroke="#10B981" stroke-width="17" stroke-linecap="round" stroke-linejoin="round"/><path d="M370 260l-38 14 13-37z" fill="#10B981"/><rect x="8" y="8" width="496" height="496" rx="92" fill="none" stroke="#fff" stroke-opacity=".25" stroke-width="4"/></svg>